<svg width="243" height="31" viewBox="0 0 243 31" fill="none" xmlns="http://www.w3.org/2000/svg">
<path d="M12.52 2C15.08 2 16.9867 2.6 18.24 3.8C19.4933 5 20.12 6.77333 20.12 9.12C20.12 10.3733 19.8133 11.48 19.2 12.44C18.5867 13.3733 17.68 14.1067 16.48 14.64C15.28 15.1467 13.8 15.4 12.04 15.4L12.2 13.6C13.0267 13.6 13.9733 13.72 15.04 13.96C16.1067 14.1733 17.1333 14.5733 18.12 15.16C19.1333 15.72 19.96 16.52 20.6 17.56C21.2667 18.5733 21.6 19.88 21.6 21.48C21.6 23.24 21.3067 24.68 20.72 25.8C20.16 26.92 19.4133 27.7867 18.48 28.4C17.5467 29.0133 16.5467 29.44 15.48 29.68C14.4133 29.8933 13.3867 30 12.4 30H2.44C1.74667 30 1.16 29.7733 0.68 29.32C0.226667 28.84 1.19209e-07 28.2533 1.19209e-07 27.56V4.44C1.19209e-07 3.74667 0.226667 3.17333 0.68 2.72C1.16 2.24 1.74667 2 2.44 2H12.52ZM11.8 6.72H4.68L5.2 6.08V13.32L4.72 12.96H11.92C12.6933 12.96 13.3867 12.7067 14 12.2C14.6133 11.6933 14.92 10.96 14.92 10C14.92 8.85333 14.6267 8.02667 14.04 7.52C13.48 6.98667 12.7333 6.72 11.8 6.72ZM12.12 17.68H4.84L5.2 17.36V25.8L4.8 25.4H12.4C13.6267 25.4 14.6 25.08 15.32 24.44C16.04 23.7733 16.4 22.7867 16.4 21.48C16.4 20.28 16.16 19.4133 15.68 18.88C15.2 18.3467 14.6267 18.0133 13.96 17.88C13.2933 17.7467 12.68 17.68 12.12 17.68ZM28.2109 30C27.5176 30 26.9443 29.7733 26.4909 29.32C26.0376 28.84 25.8109 28.2533 25.8109 27.56V11.04C25.8109 10.3467 26.0376 9.77333 26.4909 9.32C26.9443 8.84 27.5176 8.6 28.2109 8.6C28.9043 8.6 29.4776 8.84 29.9309 9.32C30.3843 9.77333 30.6109 10.3467 30.6109 11.04V14.8L30.3309 12.12C30.6243 11.48 30.9976 10.92 31.4509 10.44C31.9309 9.93333 32.4643 9.52 33.0509 9.2C33.6376 8.85333 34.2643 8.6 34.9309 8.44C35.5976 8.28 36.2643 8.2 36.9309 8.2C37.7309 8.2 38.3976 8.42667 38.9309 8.88C39.4909 9.33333 39.7709 9.86667 39.7709 10.48C39.7709 11.36 39.5443 12 39.0909 12.4C38.6376 12.7733 38.1443 12.96 37.6109 12.96C37.1043 12.96 36.6376 12.8667 36.2109 12.68C35.8109 12.4933 35.3443 12.4 34.8109 12.4C34.3309 12.4 33.8376 12.52 33.3309 12.76C32.8509 12.9733 32.3976 13.32 31.9709 13.8C31.5709 14.28 31.2376 14.88 30.9709 15.6C30.7309 16.2933 30.6109 17.12 30.6109 18.08V27.56C30.6109 28.2533 30.3843 28.84 29.9309 29.32C29.4776 29.7733 28.9043 30 28.2109 30ZM52.3363 30.4C50.0696 30.4 48.0963 29.9333 46.4163 29C44.7629 28.04 43.4829 26.7467 42.5763 25.12C41.6963 23.4933 41.2563 21.6533 41.2563 19.6C41.2563 17.2 41.7363 15.16 42.6963 13.48C43.6829 11.7733 44.9629 10.4667 46.5363 9.56C48.1096 8.65333 49.7763 8.2 51.5363 8.2C52.8963 8.2 54.1763 8.48 55.3763 9.04C56.6029 9.6 57.6829 10.3733 58.6163 11.36C59.5496 12.32 60.2829 13.44 60.8163 14.72C61.3763 16 61.6563 17.36 61.6563 18.8C61.6296 19.44 61.3763 19.96 60.8963 20.36C60.4163 20.76 59.8563 20.96 59.2163 20.96H43.9363L42.7363 16.96H57.4163L56.5363 17.76V16.68C56.4829 15.9067 56.2029 15.2133 55.6963 14.6C55.2163 13.9867 54.6029 13.5067 53.8563 13.16C53.1363 12.7867 52.3629 12.6 51.5363 12.6C50.7363 12.6 49.9896 12.7067 49.2963 12.92C48.6029 13.1333 48.0029 13.4933 47.4963 14C46.9896 14.5067 46.5896 15.1867 46.2963 16.04C46.0029 16.8933 45.8563 17.9733 45.8563 19.28C45.8563 20.72 46.1496 21.9467 46.7363 22.96C47.3496 23.9467 48.1229 24.7067 49.0563 25.24C50.0163 25.7467 51.0296 26 52.0963 26C53.0829 26 53.8696 25.92 54.4563 25.76C55.0429 25.6 55.5096 25.4133 55.8563 25.2C56.2296 24.96 56.5629 24.76 56.8563 24.6C57.3363 24.36 57.7896 24.24 58.2163 24.24C58.8029 24.24 59.2829 24.44 59.6562 24.84C60.0563 25.24 60.2563 25.7067 60.2563 26.24C60.2563 26.96 59.8829 27.6133 59.1363 28.2C58.4429 28.7867 57.4696 29.3067 56.2163 29.76C54.9629 30.1867 53.6696 30.4 52.3363 30.4ZM83.5263 8.2C84.2196 8.2 84.7929 8.42667 85.2463 8.88C85.6996 9.33333 85.9263 9.92 85.9263 10.64V27.56C85.9263 28.2533 85.6996 28.84 85.2463 29.32C84.7929 29.7733 84.2196 30 83.5263 30C82.8329 30 82.2596 29.7733 81.8063 29.32C81.3529 28.84 81.1263 28.2533 81.1263 27.56V25.6L82.0063 25.96C82.0063 26.3067 81.8196 26.7333 81.4463 27.24C81.0729 27.72 80.5663 28.2 79.9263 28.68C79.2863 29.16 78.5263 29.5733 77.6463 29.92C76.7929 30.24 75.8596 30.4 74.8463 30.4C73.0063 30.4 71.3396 29.9333 69.8463 29C68.3529 28.04 67.1663 26.7333 66.2863 25.08C65.4329 23.4 65.0063 21.48 65.0063 19.32C65.0063 17.1333 65.4329 15.2133 66.2863 13.56C67.1663 11.88 68.3396 10.5733 69.8063 9.64C71.2729 8.68 72.8996 8.2 74.6863 8.2C75.8329 8.2 76.8863 8.37333 77.8463 8.72C78.8063 9.06667 79.6329 9.50667 80.3263 10.04C81.0463 10.5733 81.5929 11.12 81.9663 11.68C82.3663 12.2133 82.5663 12.6667 82.5663 13.04L81.1263 13.56V10.64C81.1263 9.94666 81.3529 9.37333 81.8063 8.92C82.2596 8.44 82.8329 8.2 83.5263 8.2ZM75.4463 26C76.6196 26 77.6463 25.7067 78.5263 25.12C79.4063 24.5333 80.0863 23.7333 80.5663 22.72C81.0729 21.7067 81.3263 20.5733 81.3263 19.32C81.3263 18.04 81.0729 16.8933 80.5663 15.88C80.0863 14.8667 79.4063 14.0667 78.5263 13.48C77.6463 12.8933 76.6196 12.6 75.4463 12.6C74.2996 12.6 73.2863 12.8933 72.4063 13.48C71.5263 14.0667 70.8329 14.8667 70.3263 15.88C69.8463 16.8933 69.6063 18.04 69.6063 19.32C69.6063 20.5733 69.8463 21.7067 70.3263 22.72C70.8329 23.7333 71.5263 24.5333 72.4063 25.12C73.2863 25.7067 74.2996 26 75.4463 26ZM93.9234 30C93.2301 30 92.6568 29.7733 92.2034 29.32C91.7501 28.84 91.5234 28.2533 91.5234 27.56V2.84C91.5234 2.14667 91.7501 1.57333 92.2034 1.12C92.6568 0.639999 93.2301 0.4 93.9234 0.4C94.6168 0.4 95.1901 0.639999 95.6434 1.12C96.0968 1.57333 96.3234 2.14667 96.3234 2.84V27.56C96.3234 28.2533 96.0968 28.84 95.6434 29.32C95.1901 29.7733 94.6168 30 93.9234 30ZM106.643 8.6C107.257 8.6 107.79 8.85333 108.243 9.36C108.697 9.86667 108.923 10.36 108.923 10.84C108.923 11.48 108.603 12.08 107.963 12.64L95.9234 23.72L95.7234 18.2L104.883 9.36C105.39 8.85333 105.977 8.6 106.643 8.6ZM107.243 29.96C106.55 29.96 105.963 29.6933 105.483 29.16L98.0834 21.32L101.723 17.96L108.923 25.8C109.43 26.3333 109.683 26.9333 109.683 27.6C109.683 28.2933 109.403 28.8667 108.843 29.32C108.31 29.7467 107.777 29.96 107.243 29.96Z" fill="#4EA5F7"/>
<path d="M122.457 30.4C120.564 30.4 118.857 29.9867 117.337 29.16C115.844 28.3333 114.657 27.2533 113.777 25.92C112.924 24.5867 112.497 23.16 112.497 21.64C112.497 20.3067 112.724 19.0933 113.177 18C113.657 16.88 114.364 15.8933 115.297 15.04C116.257 14.1867 117.47 13.4667 118.937 12.88L122.057 16.12C120.19 16.52 118.937 17.1333 118.297 17.96C117.684 18.76 117.377 19.7467 117.377 20.92C117.377 21.72 117.577 22.5067 117.977 23.28C118.377 24.0267 119.03 24.6533 119.937 25.16C120.844 25.64 122.057 25.88 123.577 25.88C124.83 25.88 125.95 25.6 126.937 25.04C127.95 24.4533 128.817 23.6933 129.537 22.76C130.284 21.8 130.884 20.7467 131.337 19.6C131.817 18.4267 132.137 17.24 132.297 16.04C132.35 15.6133 132.51 15.28 132.777 15.04C133.07 14.8 133.55 14.68 134.217 14.68C134.91 14.68 135.457 14.96 135.857 15.52C136.257 16.08 136.404 16.7333 136.297 17.48C136.057 19.08 135.59 20.6533 134.897 22.2C134.23 23.72 133.324 25.1067 132.177 26.36C131.057 27.5867 129.684 28.5733 128.057 29.32C126.457 30.04 124.59 30.4 122.457 30.4ZM136.697 30.08C136.377 30.08 136.097 30.04 135.857 29.96C135.644 29.88 135.47 29.7867 135.337 29.68C133.417 28.0267 131.657 26.5067 130.057 25.12C128.484 23.7067 127.03 22.36 125.697 21.08C124.364 19.8 123.11 18.4933 121.937 17.16C121.004 16.0933 120.15 15.1333 119.377 14.28C118.604 13.4267 117.977 12.6 117.497 11.8C117.044 10.9733 116.817 10.0667 116.817 9.08C116.817 7.77333 117.164 6.56 117.857 5.44C118.577 4.29333 119.59 3.37333 120.897 2.68C122.204 1.96 123.75 1.6 125.537 1.6C127.377 1.6 129.03 1.90667 130.497 2.52C131.99 3.13333 132.99 3.94667 133.497 4.96C133.524 4.98667 133.59 5.16 133.697 5.48C133.804 5.77333 133.857 6.12 133.857 6.52C133.857 7.02667 133.67 7.46667 133.297 7.84C132.924 8.21333 132.417 8.4 131.777 8.4C131.35 8.4 131.017 8.32 130.777 8.16C130.537 8 130.35 7.84 130.217 7.68C129.63 6.90667 128.95 6.37333 128.177 6.08C127.43 5.76 126.55 5.6 125.537 5.6C124.337 5.6 123.417 5.92 122.777 6.56C122.164 7.2 121.857 7.96 121.857 8.84C121.857 9.66667 122.15 10.4933 122.737 11.32C123.324 12.12 123.99 12.88 124.737 13.6C125.51 14.32 126.15 14.96 126.657 15.52C127.484 16.4 128.404 17.3467 129.417 18.36C130.457 19.3467 131.497 20.32 132.537 21.28C133.577 22.2133 134.537 23.0933 135.417 23.92C136.324 24.72 137.057 25.3867 137.617 25.92C137.964 26.24 138.217 26.56 138.377 26.88C138.564 27.2 138.657 27.5867 138.657 28.04C138.657 28.3867 138.497 28.8133 138.177 29.32C137.884 29.8267 137.39 30.08 136.697 30.08Z" fill="#4D4D4D"/>
<path d="M153.256 0.4C153.843 0.4 154.416 0.479999 154.976 0.639999C155.536 0.799998 156.003 1.06666 156.376 1.44C156.75 1.78667 156.936 2.25333 156.936 2.84C156.936 3.50667 156.736 4.04 156.336 4.44C155.963 4.81333 155.523 5 155.016 5C154.776 5 154.416 4.94667 153.936 4.84C153.456 4.70667 152.99 4.64 152.536 4.64C151.87 4.64 151.35 4.78667 150.976 5.08C150.63 5.37333 150.39 5.72 150.256 6.12C150.123 6.49333 150.056 6.82667 150.056 7.12V27.56C150.056 28.2533 149.83 28.84 149.376 29.32C148.923 29.7733 148.35 30 147.656 30C146.963 30 146.39 29.7733 145.936 29.32C145.483 28.84 145.256 28.2533 145.256 27.56V7.16C145.256 5.26667 145.923 3.66667 147.256 2.36C148.59 1.05333 150.59 0.4 153.256 0.4ZM153.696 9C154.336 9 154.87 9.21333 155.296 9.64C155.723 10.04 155.936 10.56 155.936 11.2C155.936 11.84 155.723 12.3733 155.296 12.8C154.87 13.2 154.336 13.4 153.696 13.4H143.096C142.456 13.4 141.923 13.2 141.496 12.8C141.07 12.3733 140.856 11.84 140.856 11.2C140.856 10.56 141.07 10.04 141.496 9.64C141.923 9.21333 142.456 9 143.096 9H153.696ZM179.266 19.32C179.266 21.5067 178.773 23.44 177.786 25.12C176.826 26.7733 175.52 28.0667 173.866 29C172.24 29.9333 170.413 30.4 168.386 30.4C166.36 30.4 164.52 29.9333 162.866 29C161.24 28.0667 159.933 26.7733 158.946 25.12C157.986 23.44 157.506 21.5067 157.506 19.32C157.506 17.1333 157.986 15.2133 158.946 13.56C159.933 11.88 161.24 10.5733 162.866 9.64C164.52 8.68 166.36 8.2 168.386 8.2C170.413 8.2 172.24 8.68 173.866 9.64C175.52 10.5733 176.826 11.88 177.786 13.56C178.773 15.2133 179.266 17.1333 179.266 19.32ZM174.466 19.32C174.466 17.96 174.186 16.7867 173.626 15.8C173.093 14.7867 172.36 14 171.426 13.44C170.52 12.88 169.506 12.6 168.386 12.6C167.266 12.6 166.24 12.88 165.306 13.44C164.4 14 163.666 14.7867 163.106 15.8C162.573 16.7867 162.306 17.96 162.306 19.32C162.306 20.6533 162.573 21.8267 163.106 22.84C163.666 23.8267 164.4 24.6 165.306 25.16C166.24 25.72 167.266 26 168.386 26C169.506 26 170.52 25.72 171.426 25.16C172.36 24.6 173.093 23.8267 173.626 22.84C174.186 21.8267 174.466 20.6533 174.466 19.32ZM192.987 8.2C194.507 8.2 195.827 8.36 196.947 8.68C198.094 9 198.974 9.45333 199.587 10.04C200.227 10.6 200.547 11.28 200.547 12.08C200.547 12.6133 200.387 13.12 200.067 13.6C199.747 14.0533 199.281 14.28 198.667 14.28C198.241 14.28 197.881 14.2267 197.587 14.12C197.321 13.9867 197.081 13.8267 196.867 13.64C196.654 13.4533 196.401 13.28 196.107 13.12C195.841 12.96 195.427 12.84 194.867 12.76C194.334 12.6533 193.934 12.6 193.667 12.6C192.307 12.6 191.147 12.8933 190.187 13.48C189.254 14.0667 188.534 14.8667 188.027 15.88C187.521 16.8667 187.267 18.0133 187.267 19.32C187.267 20.6 187.521 21.7467 188.027 22.76C188.561 23.7467 189.281 24.5333 190.187 25.12C191.121 25.7067 192.187 26 193.387 26C194.054 26 194.627 25.96 195.107 25.88C195.587 25.8 195.987 25.68 196.307 25.52C196.681 25.3067 197.014 25.08 197.307 24.84C197.601 24.6 198.041 24.48 198.627 24.48C199.321 24.48 199.854 24.7067 200.227 25.16C200.601 25.5867 200.787 26.12 200.787 26.76C200.787 27.4267 200.414 28.04 199.667 28.6C198.921 29.1333 197.934 29.5733 196.707 29.92C195.507 30.24 194.201 30.4 192.787 30.4C190.681 30.4 188.854 29.92 187.307 28.96C185.761 27.9733 184.561 26.64 183.707 24.96C182.881 23.28 182.467 21.4 182.467 19.32C182.467 17.1333 182.907 15.2133 183.787 13.56C184.694 11.88 185.934 10.5733 187.507 9.64C189.107 8.68 190.934 8.2 192.987 8.2ZM220.128 8.6C220.822 8.6 221.395 8.84 221.848 9.32C222.302 9.77333 222.528 10.3467 222.528 11.04V21.2C222.528 24.0267 221.742 26.2667 220.168 27.92C218.595 29.5733 216.328 30.4 213.368 30.4C210.408 30.4 208.142 29.5733 206.568 27.92C205.022 26.2667 204.248 24.0267 204.248 21.2V11.04C204.248 10.3467 204.475 9.77333 204.928 9.32C205.382 8.84 205.955 8.6 206.648 8.6C207.342 8.6 207.915 8.84 208.368 9.32C208.822 9.77333 209.048 10.3467 209.048 11.04V21.2C209.048 22.8267 209.408 24.04 210.128 24.84C210.848 25.6133 211.928 26 213.368 26C214.835 26 215.928 25.6133 216.648 24.84C217.368 24.04 217.728 22.8267 217.728 21.2V11.04C217.728 10.3467 217.955 9.77333 218.408 9.32C218.862 8.84 219.435 8.6 220.128 8.6ZM226.485 26.68C226.218 26.3067 226.098 25.8267 226.125 25.24C226.152 24.6533 226.498 24.1467 227.165 23.72C227.592 23.4533 228.045 23.3467 228.525 23.4C229.005 23.4267 229.472 23.6667 229.925 24.12C230.698 24.8933 231.512 25.4933 232.365 25.92C233.218 26.3467 234.285 26.56 235.565 26.56C235.965 26.5333 236.405 26.48 236.885 26.4C237.365 26.2933 237.778 26.08 238.125 25.76C238.498 25.4133 238.685 24.8933 238.685 24.2C238.685 23.6133 238.485 23.1467 238.085 22.8C237.685 22.4533 237.152 22.16 236.485 21.92C235.845 21.68 235.125 21.4533 234.325 21.24C233.498 21 232.645 20.7333 231.765 20.44C230.912 20.1467 230.125 19.7733 229.405 19.32C228.685 18.84 228.098 18.2133 227.645 17.44C227.192 16.6667 226.965 15.6933 226.965 14.52C226.965 13.1867 227.338 12.0533 228.085 11.12C228.832 10.1867 229.792 9.46667 230.965 8.96C232.165 8.45333 233.418 8.2 234.725 8.2C235.552 8.2 236.418 8.30667 237.325 8.52C238.232 8.70667 239.098 9.02667 239.925 9.48C240.752 9.90667 241.445 10.48 242.005 11.2C242.298 11.6 242.472 12.08 242.525 12.64C242.578 13.2 242.325 13.7067 241.765 14.16C241.365 14.48 240.898 14.6267 240.365 14.6C239.832 14.5467 239.392 14.36 239.045 14.04C238.592 13.4533 237.978 12.9867 237.205 12.64C236.458 12.2933 235.592 12.12 234.605 12.12C234.205 12.12 233.765 12.1733 233.285 12.28C232.832 12.36 232.432 12.56 232.085 12.88C231.738 13.1733 231.565 13.6533 231.565 14.32C231.565 14.9333 231.765 15.4267 232.165 15.8C232.565 16.1467 233.098 16.44 233.765 16.68C234.458 16.8933 235.192 17.1067 235.965 17.32C236.765 17.5333 237.578 17.7867 238.405 18.08C239.232 18.3733 239.992 18.76 240.685 19.24C241.378 19.72 241.938 20.3467 242.365 21.12C242.792 21.8667 243.005 22.8267 243.005 24C243.005 25.36 242.605 26.52 241.805 27.48C241.005 28.44 240.005 29.1733 238.805 29.68C237.605 30.16 236.378 30.4 235.125 30.4C233.552 30.4 231.978 30.1333 230.405 29.6C228.832 29.04 227.525 28.0667 226.485 26.68Z" fill="#19B69A"/>
</svg>
